<?xml version="1.0" encoding="UTF-8"?>
<!DOCTYPE svg PUBLIC "-//W3C//DTD SVG 1.1//EN" "http://www.w3.org/Graphics/SVG/1.1/DTD/svg11.dtd">
<!-- Creator: CorelDRAW X6 -->
<svg xmlns="http://www.w3.org/2000/svg" xml:space="preserve" width="2600px" height="500px" version="1.1" style="shape-rendering:geometricPrecision; text-rendering:geometricPrecision; image-rendering:optimizeQuality; fill-rule:evenodd; clip-rule:evenodd"
viewBox="0 0 2600 500"
 xmlns:xlink="http://www.w3.org/1999/xlink">
 <defs>
  <style type="text/css">
   <![CDATA[
    .str0 {stroke:#373435;stroke-width:0.900001}
    .str1 {stroke:#ED3237;stroke-width:2.36221}
    .fil2 {fill:none}
    .fil1 {fill:#ED3237}
    .fil0 {fill:#373435;fill-rule:nonzero}
    .fil3 {fill:#ED3237;fill-rule:nonzero}
   ]]>
  </style>
   <clipPath id="id0">
    <path d="M1076 68c30,40 48,90 48,144 0,133 -108,242 -242,242 -2,0 -4,0 -6,0l-35 -175 62 -12c43,-9 76,-18 98,-27 16,-7 31,-18 45,-32 14,-15 24,-33 31,-55 7,-22 7,-47 1,-76 -1,-3 -1,-6 -2,-9zm-305 359c-78,-40 -131,-121 -131,-215 0,-59 21,-113 57,-155l74 370zm27 -363l27 135 52 -10c38,-7 62,-15 74,-23 12,-7 20,-17 25,-29 5,-12 6,-25 3,-39 -3,-17 -11,-30 -24,-40 -12,-9 -26,-14 -43,-13 -12,0 -35,4 -69,10l-46 9z"/>
   </clipPath>
 </defs>
 <g id="Capa_x0020_1">
  <metadata id="CorelCorpID_0Corel-Layer"/>
  <path class="fil0 str0" d="M1335 376l-148 0 -14 30 -23 48 -33 0 12 -26 0 0 0 0 3 -6 4 -8 4 -9 0 0 88 -191 18 -38 32 0 9 20 0 0 0 0 2 5 9 19 4 8 0 0 81 175 0 0 2 4 2 5 5 11 0 0 0 1 0 1 14 29 -35 0 -15 -32 -21 -46zm-12 -26l-63 -137 -62 137 125 0zm200 -147l0 84 0 0 0 168 -32 0 0 -21 0 -3 0 -228 -94 0 -1 0 0 0 0 0 -23 0 0 -26 268 0 0 26 -23 0 0 0 0 0 -1 0 -94 0zm198 126l0 42 0 59 0 0 0 0 0 0 0 23 -32 0 0 -23 0 0 0 0 0 0 0 -230 0 0 0 0 0 0 0 -23 140 0c21,0 38,1 50,3 12,2 23,6 32,12 9,6 17,14 22,23 6,11 10,24 10,38 0,21 -7,39 -21,52 -14,13 -33,21 -58,23l46 71 0 0 2 3 23 36 2 2 9 15 -38 0 -12 -19 0 0 0 0 0 0 0 0 0 0 -3 -5 -6 -10 -4 -7 0 0 -53 -83 -106 0zm0 -26l113 0c15,0 27,-1 35,-2 8,-1 15,-4 21,-7 14,-8 21,-22 21,-41 0,-19 -7,-33 -22,-41 -6,-4 -14,-6 -21,-7 -8,-1 -20,-2 -36,-2l-110 0 0 100zm288 128l0 -172 32 0 0 172 0 1 0 0 0 0 0 23 -32 0 0 -22 0 0 0 0 0 -1zm303 -54l-148 0 -25 53 0 0 0 0 0 0 0 0 0 0 0 0 0 0 0 0 0 0 0 0 -11 23 -33 0 13 -29 0 0 0 0 0 0 0 0 0 0 0 0 0 0 0 0 0 -1 2 -5 5 -11 0 0 84 -181 22 -48 31 0 23 48 79 171 0 1 8 17 5 11 0 1 0 1 0 1 0 1 13 28 -35 0 -26 -56 -10 -22zm-12 -26l-63 -137 -62 137 125 0z"/>
  <g>
  </g>
  <g style="clip-path:url(#id0)">
   <g>
    <rect class="fil1 str1" x="504" y="-250" width="953" height="727"/>
   </g>
  </g>
  <path class="fil2" d="M1076 68c30,40 48,90 48,144 0,133 -108,242 -242,242 -2,0 -4,0 -6,0l-35 -175 62 -12c43,-9 76,-18 98,-27 16,-7 31,-18 45,-32 14,-15 24,-33 31,-55 7,-22 7,-47 1,-76 -1,-3 -1,-6 -2,-9zm-305 359c-78,-40 -131,-121 -131,-215 0,-59 21,-113 57,-155l74 370zm27 -363l27 135 52 -10c38,-7 62,-15 74,-23 12,-7 20,-17 25,-29 5,-12 6,-25 3,-39 -3,-17 -11,-30 -24,-40 -12,-9 -26,-14 -43,-13 -12,0 -35,4 -69,10l-46 9z"/>
  <path class="fil3" d="M2029 235c-10,0 -18,-3 -25,-10 -7,-7 -10,-15 -10,-25 0,-10 3,-19 10,-25 7,-7 15,-10 25,-10 10,0 18,3 25,10 7,7 10,15 10,25 0,10 -4,18 -10,25 -7,7 -16,10 -25,10z"/>
  <path class="fil0" d="M115 428l143 0 34 0 0 0 0 0 0 0 23 0 0 26 -23 0 0 0 0 0 -1 0 -209 0 0 -23 0 0 0 -1 0 -210 0 -20 0 0 0 0 0 0 0 -23 32 0 0 21 0 3 0 228zm454 -52l-148 0 -25 53 0 0 0 0 0 0 0 0 0 0 0 0 0 0 -11 24 -33 0 11 -23 0 0c1,-3 3,-6 5,-10l8 -17 4 -8 0 0 81 -175 21 -44 31 0 23 50 84 183 0 0 2 3 1 2 0 1 0 1 0 1 2 5 0 1 0 1 0 1 0 1 0 1 0 0 15 31 -35 0 -21 -45 -15 -33zm-12 -26l-63 -137 -62 137 125 0z"/>
  <path class="fil3" d="M2464 454l0 -30c2,0 3,0 6,0 12,0 31,-5 31,-27 0,-7 -3,-14 -8,-18 -5,-4 -13,-6 -23,-6 -9,0 -16,1 -21,2l0 80 15 0zm0 -69c1,0 4,-1 7,-1 9,0 14,5 14,13 0,9 -6,14 -15,14 -2,0 -4,0 -5,0l0 -26zm63 56l0 -22 26 0 0 -13 -26 0 0 -20 28 0 0 -13 -43 0 0 81 45 0 0 -13 -30 0z"/>
  <path class="fil3" d="M2424 455c-2,0 -4,-1 -6,-2 -2,-2 -2,-4 -2,-6 0,-2 1,-4 2,-6 2,-2 4,-2 6,-2 2,0 4,1 6,2 2,2 2,4 2,6 0,2 -1,4 -2,6 -2,2 -4,2 -6,2z"/>
 </g>
</svg>
